<?xml version="1.0" standalone="no"?>
<!DOCTYPE svg PUBLIC "-//W3C//DTD SVG 20010904//EN"
 "http://www.w3.org/TR/2001/REC-SVG-20010904/DTD/svg10.dtd">
<svg version="1.0" xmlns="http://www.w3.org/2000/svg"
 width="640.000000pt" height="640.000000pt" viewBox="0 0 640.000000 640.000000"
 preserveAspectRatio="xMidYMid meet">
<metadata>
Created by potrace 1.11, written by Peter Selinger 2001-2013
</metadata>
<g transform="translate(0.000000,640.000000) scale(0.100000,-0.100000)"
fill="#000000" stroke="none">
<path d="M3273 5723 c3 -5 -9 -9 -26 -9 -47 -2 -80 -12 -89 -26 -4 -7 -8 -9
-8 -5 0 13 -30 -20 -30 -33 0 -7 -6 -10 -14 -7 -7 3 -19 0 -25 -6 -8 -8 -11
-8 -11 1 0 7 -13 12 -30 12 -16 0 -30 4 -30 8 0 4 -12 9 -27 10 -15 1 -29 5
-32 10 -3 4 -17 9 -31 11 -14 1 -33 7 -43 13 -10 5 -25 7 -33 4 -8 -3 -14 -1
-14 4 0 6 -9 6 -25 0 -18 -7 -25 -6 -25 3 0 9 -2 9 -9 -1 -7 -12 -45 -22 -93
-25 -10 -1 -18 -4 -18 -8 0 -4 -18 -6 -40 -5 -24 2 -40 -2 -40 -8 0 -6 -5 -4
-10 4 -5 8 -10 10 -10 5 0 -6 -8 -12 -17 -13 -87 -8 -131 -16 -147 -24 -14 -8
-17 -7 -11 3 6 8 4 10 -6 4 -7 -5 -27 -10 -44 -11 -16 -1 -30 -3 -30 -4 0 -2
-51 -8 -102 -11 -18 -1 -33 -5 -33 -8 0 -3 -20 -5 -45 -4 -26 1 -45 -3 -45 -9
0 -7 -4 -7 -13 1 -8 6 -16 8 -19 5 -3 -2 -18 -7 -34 -10 -16 -3 -33 -9 -40
-15 -6 -5 -13 -6 -16 -4 -3 3 -18 0 -34 -6 -16 -7 -31 -13 -34 -14 -20 -5
-106 -51 -108 -57 -2 -5 -8 -6 -13 -2 -5 3 -9 0 -9 -6 0 -6 -4 -9 -9 -5 -5 3
-16 -2 -25 -10 -8 -9 -17 -15 -18 -14 -8 5 -48 -14 -48 -22 0 -6 -5 -7 -10 -4
-6 3 -13 -1 -16 -9 -3 -9 -10 -14 -14 -11 -5 3 -15 -2 -23 -10 -9 -8 -20 -15
-26 -15 -6 0 -11 -5 -11 -11 0 -5 -4 -7 -10 -4 -5 3 -10 1 -10 -4 0 -6 -3 -10
-7 -9 -12 4 -73 -26 -73 -35 0 -5 -4 -5 -10 -2 -5 3 -10 1 -10 -5 0 -6 -4 -8
-10 -5 -5 3 -10 2 -10 -4 0 -6 -7 -8 -15 -5 -8 4 -17 -1 -21 -10 -3 -9 -10
-13 -15 -10 -5 2 -19 -1 -31 -8 -13 -7 -26 -11 -30 -10 -5 1 -8 -2 -8 -7 0 -5
-21 -20 -48 -32 -26 -13 -53 -29 -60 -36 -8 -7 -18 -11 -23 -7 -5 3 -12 -2
-15 -10 -3 -9 -10 -13 -15 -10 -5 3 -12 -1 -15 -10 -3 -8 -12 -12 -20 -9 -7 3
-17 -2 -20 -11 -3 -9 -9 -14 -14 -11 -4 2 -16 -5 -28 -15 -12 -11 -25 -20 -30
-20 -5 0 -30 -18 -56 -41 -25 -22 -46 -38 -46 -34 0 3 -25 -20 -55 -51 -30
-32 -55 -62 -55 -66 0 -5 -4 -6 -10 -3 -5 3 -10 -1 -10 -9 0 -9 -4 -16 -9 -16
-8 0 -22 -30 -25 -55 -2 -16 -39 -54 -47 -50 -11 7 -79 -24 -79 -36 0 -5 -4
-8 -8 -5 -5 3 -14 -4 -22 -14 -8 -10 -16 -18 -19 -17 -3 2 -20 -12 -38 -30
-17 -18 -29 -33 -26 -33 3 0 -6 -11 -20 -24 -14 -13 -23 -27 -20 -30 3 -3 -2
-8 -11 -12 -9 -3 -16 -12 -16 -19 0 -7 -7 -15 -15 -19 -8 -3 -15 -11 -15 -18
0 -7 -11 -25 -25 -40 -14 -15 -25 -34 -25 -42 0 -8 -3 -16 -7 -18 -11 -4 -53
-95 -53 -113 0 -8 -4 -15 -8 -15 -5 0 -9 -6 -10 -12 -1 -15 -10 -52 -12 -55
-2 -2 -3 -7 -4 -12 0 -5 -4 -12 -8 -16 -4 -4 -4 -14 -1 -23 4 -10 2 -13 -5 -8
-8 5 -12 -1 -12 -18 0 -14 -4 -26 -9 -26 -5 0 -7 -9 -4 -20 3 -11 1 -20 -5
-20 -5 0 -12 -15 -16 -32 -7 -36 -14 -63 -16 -63 -1 0 -3 -11 -5 -25 -1 -14
-7 -37 -14 -52 -6 -16 -8 -28 -5 -28 4 0 1 -6 -5 -14 -6 -8 -13 -38 -16 -67
-2 -30 -5 -55 -6 -56 -1 -2 -2 -6 -4 -10 -1 -5 -8 -21 -15 -38 -7 -16 -14 -36
-16 -43 -1 -7 -10 -24 -18 -38 -10 -14 -12 -24 -6 -24 6 0 8 -5 4 -12 -4 -6
-9 -37 -11 -67 -1 -31 -5 -65 -7 -76 -2 -11 2 -26 8 -34 8 -11 8 -13 -1 -8 -9
6 -10 -20 -7 -100 5 -141 6 -153 16 -153 5 0 4 -9 -2 -19 -5 -11 -6 -22 -1
-25 5 -3 8 -16 8 -29 0 -29 42 -127 55 -127 5 0 6 -4 3 -10 -3 -5 0 -10 8 -10
8 0 20 -7 27 -15 7 -8 16 -12 21 -9 12 7 11 -63 -1 -87 -7 -12 -7 -19 -1 -19
5 0 10 -8 10 -17 1 -39 5 -53 13 -53 4 0 8 -5 8 -10 0 -11 67 -116 88 -138 6
-7 12 -17 12 -21 0 -8 57 -71 64 -71 2 0 18 -13 35 -29 39 -37 159 -98 208
-107 21 -4 43 -9 48 -13 6 -3 15 -6 20 -7 6 -1 24 -5 40 -9 37 -7 108 -16 158
-19 21 -1 41 -6 45 -11 4 -6 14 -11 22 -11 8 -1 29 -4 45 -8 17 -3 47 -6 67
-8 21 -1 38 -5 38 -8 0 -3 25 -5 55 -5 30 0 55 3 55 8 0 4 5 5 12 1 15 -9 58
-12 58 -4 0 4 10 6 23 5 12 -1 25 3 29 9 8 13 158 17 158 4 0 -4 10 -7 21 -5
30 3 33 -30 5 -57 -28 -26 -66 -98 -66 -125 0 -11 -5 -23 -11 -26 -6 -4 -8
-13 -5 -21 3 -8 2 -14 -3 -14 -5 0 -7 -10 -7 -23 1 -12 -2 -27 -6 -34 -5 -6
-4 -14 2 -18 8 -5 8 -11 -1 -21 -7 -9 -8 -14 -1 -14 6 0 9 -8 7 -19 -5 -25 39
-110 67 -130 58 -43 86 -77 83 -104 -2 -15 1 -27 7 -27 7 0 7 -5 -1 -13 -8
-10 -7 -17 1 -25 7 -7 9 -12 5 -12 -4 0 -3 -8 2 -18 6 -11 12 -32 15 -48 3
-16 11 -31 17 -33 6 -2 22 -16 37 -32 14 -16 31 -29 39 -29 7 0 13 -3 13 -8 0
-4 35 -18 78 -31 42 -13 84 -29 92 -36 19 -16 78 -46 86 -44 4 0 10 -4 13 -9
3 -5 29 -17 56 -26 28 -10 60 -23 71 -31 12 -8 32 -15 45 -17 13 -2 29 -6 34
-9 19 -11 108 -30 153 -32 12 -1 22 -5 22 -9 0 -5 10 -4 21 3 13 7 19 7 15 1
-4 -6 2 -11 11 -11 169 -4 219 -1 242 13 10 7 12 6 6 -4 -5 -9 -4 -11 3 -6 7
4 22 9 34 11 13 3 28 10 33 17 6 7 19 14 30 16 33 4 70 11 70 12 0 1 25 4 55
6 30 3 61 6 68 6 6 1 12 5 12 10 0 5 4 7 9 3 5 -3 12 -1 16 5 4 6 11 8 16 5 5
-4 9 -1 9 5 0 7 6 10 12 8 7 -3 21 4 32 13 10 10 22 16 26 14 4 -3 13 2 20 10
7 8 18 15 26 15 7 0 19 6 26 12 7 7 27 20 43 28 17 8 35 22 42 30 7 8 13 11
13 6 0 -5 9 3 20 17 17 22 60 41 95 42 6 0 13 5 17 10 5 6 8 5 8 -3 0 -10 4
-10 15 2 8 8 24 13 35 11 11 -2 20 0 20 5 0 5 11 7 25 4 14 -2 25 -1 25 4 0 4
16 8 36 9 33 1 37 -2 61 -53 14 -30 28 -54 32 -54 13 0 31 -58 33 -103 1 -26
5 -47 9 -47 4 0 9 -13 12 -29 7 -33 64 -96 97 -106 11 -3 20 -11 20 -16 0 -6
5 -7 10 -4 6 3 10 1 10 -5 0 -6 5 -8 10 -5 6 3 10 2 10 -3 0 -5 7 -9 15 -9 8
0 12 4 9 9 -3 4 3 7 13 6 36 -3 64 2 59 11 -3 5 8 7 26 6 17 -2 35 -10 40 -19
5 -9 16 -16 24 -16 8 0 12 -5 9 -10 -3 -6 1 -10 10 -10 8 0 23 -9 32 -20 10
-11 21 -20 25 -20 5 0 22 -12 40 -28 32 -27 49 -45 126 -126 48 -51 85 -58
122 -24 11 10 22 18 25 18 3 0 26 20 50 44 32 31 46 54 51 82 7 48 12 57 29
50 7 -2 16 -2 19 2 7 6 25 9 86 16 56 6 112 16 119 21 4 2 21 6 37 9 16 3 30
10 32 16 2 5 7 8 12 5 4 -3 28 4 53 14 25 11 48 17 51 14 3 -4 6 -2 6 4 0 6
32 21 70 34 39 12 70 27 70 32 0 5 6 7 12 5 7 -3 35 8 61 24 27 15 45 23 42
16 -4 -7 0 -5 8 5 8 9 17 17 21 17 3 0 17 10 32 23 14 12 30 23 35 23 5 1 14
2 20 3 18 2 179 169 179 185 0 9 5 16 10 16 6 0 10 7 10 15 0 7 8 19 18 24 9
6 13 11 9 11 -5 0 1 13 12 28 11 16 23 41 27 58 4 16 13 34 20 41 7 7 15 32
19 55 4 23 12 47 19 53 15 14 93 34 122 30 13 -1 24 1 24 6 0 5 6 6 14 3 15
-6 129 43 134 58 2 4 10 8 18 8 8 0 14 5 14 10 0 6 6 10 13 10 14 0 83 80 80
92 -2 4 2 8 7 8 6 0 10 7 10 15 0 8 5 15 11 15 6 0 9 7 5 15 -3 8 -1 15 5 15
6 0 8 4 4 9 -3 5 -1 12 5 16 6 4 8 11 5 16 -4 5 -1 9 4 9 6 0 11 9 11 19 0 11
5 23 11 26 6 4 9 24 6 47 -6 53 1 76 25 84 11 3 17 8 14 11 -3 3 2 20 11 37
20 36 18 30 28 84 4 23 11 42 14 42 4 0 8 12 8 28 2 29 11 89 18 109 2 6 0 13
-5 15 -5 2 -11 20 -12 40 -2 21 -6 38 -10 38 -4 0 1 15 12 33 11 17 20 43 20
58 0 14 6 31 13 38 10 11 9 12 -3 6 -12 -7 -13 -6 -3 6 14 17 13 59 0 59 -5 0
-4 6 2 14 7 9 8 17 2 20 -10 7 -9 31 2 42 3 4 3 14 -2 23 -7 14 -8 49 -1 76 1
6 1 12 0 15 -1 3 -3 16 -5 30 -7 50 -16 85 -28 99 -9 12 -9 13 1 7 7 -4 4 7
-7 26 -10 18 -24 59 -31 91 -7 31 -17 57 -21 57 -5 0 -6 7 -3 15 4 8 2 15 -3
15 -5 0 -9 10 -10 21 -1 12 -10 30 -19 40 -9 11 -14 19 -11 19 4 0 -7 21 -23
47 -17 26 -30 53 -30 60 0 7 -4 13 -10 13 -5 0 -9 3 -8 8 1 4 -3 16 -9 27 -6
11 -12 43 -14 70 -1 28 -5 55 -8 60 -7 12 -12 35 -14 58 -1 9 -4 17 -8 17 -4
0 -10 16 -13 35 -4 19 -12 35 -18 35 -5 0 -8 7 -4 15 3 8 1 15 -4 15 -6 0 -10
7 -10 15 0 8 -4 15 -10 15 -5 0 -10 7 -10 15 0 8 -4 15 -10 15 -5 0 -10 6 -10
13 0 15 -154 177 -168 177 -12 0 -57 45 -58 59 -1 6 -2 12 -3 14 -2 1 -5 13
-7 27 -2 13 -8 27 -12 30 -9 6 -35 67 -39 89 -1 8 -5 17 -10 20 -4 3 -9 13
-11 21 -6 28 -34 80 -43 80 -5 0 -9 6 -9 13 0 10 -56 65 -99 97 -11 8 -40 74
-35 81 2 4 -3 9 -11 13 -8 3 -15 12 -15 21 0 18 -146 165 -164 165 -3 0 -14 8
-24 18 -34 31 -62 52 -71 52 -10 0 -61 65 -61 78 0 5 -14 20 -32 33 -17 13
-37 30 -45 37 -7 7 -13 11 -13 7 0 -4 -7 1 -16 9 -8 9 -20 14 -25 11 -5 -4 -9
-1 -9 6 0 7 -2 10 -6 7 -3 -3 -26 5 -52 17 -26 12 -57 22 -69 20 -13 -1 -23 3
-23 9 0 7 -3 6 -8 -2 -12 -17 -51 22 -58 58 -4 15 -14 31 -23 33 -17 6 -73 38
-81 48 -13 14 -148 78 -154 72 -3 -4 -6 -2 -6 4 0 6 -27 22 -60 37 -32 15 -62
31 -65 37 -4 5 -10 7 -15 4 -5 -3 -20 -1 -32 6 -21 11 -55 18 -110 22 -16 1
-28 6 -28 12 0 5 -5 3 -10 -5 -7 -11 -10 -11 -10 -2 0 7 -4 10 -10 7 -5 -3
-10 -1 -10 4 0 6 -6 11 -14 11 -7 0 -19 7 -26 15 -7 8 -16 12 -21 9 -5 -3 -9
0 -9 6 0 7 -6 10 -14 7 -7 -3 -18 -1 -23 4 -9 9 -47 19 -83 23 -8 0 -18 5 -21
9 -3 4 -16 9 -27 10 -12 1 -22 6 -22 11 0 5 -2 7 -6 4 -3 -3 -22 -1 -42 4 -20
5 -52 11 -70 13 -19 2 -41 10 -50 17 -9 7 -13 8 -9 2 4 -7 -9 -10 -38 -10 -23
1 -41 4 -40 7 6 9 -99 4 -114 -5 -10 -6 -12 -5 -7 2 10 16 -7 15 -23 0 -11
-10 -12 -10 -7 -1 9 16 -63 15 -83 -1 -11 -8 -13 -8 -8 1 9 15 -95 13 -105 -2
-5 -6 -8 -5 -8 3 0 6 -5 12 -11 12 -5 0 -8 -3 -6 -7z"/>
</g>
</svg>
